<svg width="95" height="32" viewBox="0 0 95 32" fill="none" xmlns="http://www.w3.org/2000/svg">
<path d="M90.5037 6.0842H86.3832V0.31543H77.3353L73.1743 6.0842H65.7804L63.3081 8.55653V6.0842H57.5393V0.31543H39.4089V6.0842H13.9027L9.74099 0.31543H0.675781V20.0941L12.2133 31.6316H23.7508V28.3352L27.0473 31.6316H49.2982V28.3352L52.5947 31.6316H63.3081V28.3352L66.6045 31.6316H87.2073L94.6243 24.2146V10.2047L90.5037 6.0842ZM14.6856 14.3253H8.91688V15.9735H14.6856V22.5664H5.62044L2.324 19.2699V1.96365H8.91688V7.73242H14.6856V14.3253ZM39.4089 22.5664H19.6303L16.3339 19.2699V7.73242H22.9267V15.9735H24.575V7.73242H31.1678V15.9735H32.8161V7.73242H39.4089V22.5664ZM47.65 22.5664H41.0572V7.73242H47.65V22.5664ZM47.65 6.0842H41.0572V1.96365H47.65V6.0842ZM61.6599 14.3253H55.8911V15.9735H61.6599V22.5664H52.5947L49.2982 19.2699V1.96365H55.8911V7.73242H61.6599V14.3253ZM76.4939 14.3253H69.901V15.9735H76.4939V22.5664H66.6045L63.3081 19.2699V11.0289L66.6045 7.73242H76.4939V14.3253ZM92.9761 22.5664H86.3832V14.3253H84.735V22.5664H78.1421V1.96365H84.735V7.73242H89.6796L92.9761 11.0289V22.5664Z" fill="#080808"/>
</svg>
