<svg width="123" height="32" viewBox="0 0 123 32" fill="none" xmlns="http://www.w3.org/2000/svg">
<path d="M13.4695 1.22615C11.8859 1.40552 9.51046 2.1506 8.15892 2.89567C4.52752 4.86875 2.07018 7.94564 0.841507 12.0436C0.595773 12.8438 0.309083 15.0239 0.322735 16.0449C0.322735 16.9417 0.595773 19.1356 0.759596 19.6599C0.841507 19.9083 1.01898 20.5016 1.16915 20.9569C1.41489 21.7296 2.6026 24.158 2.80738 24.3235C2.84834 24.3649 3.06677 24.6409 3.27154 24.9582C3.77666 25.7171 5.1009 27.0693 6.09749 27.8419C6.86199 28.4352 9.01899 29.6908 9.29203 29.7046C9.36029 29.7046 9.37394 29.1803 9.33299 28.4904C9.23742 26.9589 9.52411 24.8754 10.1384 22.7506C10.2477 22.3918 10.3296 21.9227 10.3296 21.7158C10.3296 21.5088 10.3842 21.288 10.4524 21.219C10.5207 21.1363 10.6436 20.7361 10.7118 20.3222C10.7937 19.9083 10.9303 19.2736 11.0258 18.9148C11.1623 18.3767 11.1487 18.1697 10.9576 17.5902C10.6845 16.7072 10.6709 15.2722 10.9439 14.5823C11.5855 12.9404 12.2954 12.3195 13.4968 12.3195C14.9439 12.3195 15.6402 13.4233 15.3671 15.2722C15.2443 16.1139 14.903 17.4385 14.6845 17.8524C14.6299 17.9766 14.5344 18.3215 14.4934 18.6113C14.4388 18.9148 14.3296 19.3426 14.2613 19.5771C14.0702 20.1152 14.4388 21.1638 14.9303 21.564C15.3944 21.9365 16.3637 22.0469 17.2511 21.8399C17.8791 21.702 18.1385 21.5364 18.7938 20.9017C19.5719 20.129 20.1589 19.2322 20.1589 18.8044C20.1589 18.6803 20.2272 18.5147 20.3091 18.4319C20.6914 18.0456 20.8961 15.0377 20.6095 13.7683C20.2955 12.3747 19.3262 11.0087 18.0702 10.2085C16.8142 9.3944 14.2204 9.15984 12.6231 9.71174C11.5036 10.0981 10.507 10.7466 9.86541 11.5054C9.29203 12.1815 8.69135 13.2854 8.69135 13.6717C8.69135 13.8097 8.62309 13.989 8.54118 14.0718C8.45927 14.1546 8.3637 14.6789 8.32275 15.2446C8.25449 16.0863 8.3091 16.4726 8.55483 17.3005C8.71865 17.8662 9.01899 18.5285 9.19647 18.7768C9.56507 19.2736 9.56507 19.4667 9.22377 20.7913C9.12821 21.15 8.96439 21.4812 8.86882 21.5226C8.00875 21.8537 6.26131 19.7703 5.67428 17.7006C5.45585 16.9142 5.4422 14.1132 5.66063 13.2854C5.75619 12.9404 5.92001 12.4713 6.02923 12.2229C6.13844 11.9884 6.23401 11.7538 6.23401 11.6986C6.23401 11.6434 6.50704 11.1743 6.84834 10.6638C8.62309 7.95943 11.5036 6.52447 15.1487 6.52447C15.9815 6.52447 16.8415 6.57966 17.0736 6.64865C18.9576 7.24195 19.4627 7.43512 20.1999 7.87665C21.6333 8.7459 22.6709 9.93251 23.7084 11.9194C23.7767 12.0436 23.8723 12.3747 23.9132 12.6507C23.9678 12.9266 24.0634 13.1888 24.1316 13.2302C24.1999 13.2716 24.2545 14.1684 24.2545 15.2308C24.2545 17.1487 24.118 17.9214 23.5446 19.4943C22.903 21.219 21.2511 23.1231 19.7494 23.8682C18.8893 24.2821 17.2784 24.7375 16.6368 24.7375C15.7767 24.7375 14.0838 24.02 13.6197 23.4405C13.4013 23.1783 13.1965 23.2749 13.1965 23.6474C13.1965 23.7854 13.1419 24.02 13.06 24.158C12.9917 24.2821 12.8688 24.6685 12.8006 25.0134C12.4047 26.8347 11.8449 28.3111 10.9849 29.6908C10.7255 30.1186 10.9439 30.3669 11.6538 30.4635C12.0088 30.5187 12.4866 30.6153 12.705 30.6843C13.2511 30.8636 16.2135 30.836 17.2101 30.6567C18.1112 30.4911 19.5719 30.0772 20.2272 29.8012C24.3501 28.0903 27.4764 24.6133 28.8279 20.1842C29.5514 17.8248 29.5924 15.0791 28.9371 12.3195C28.7187 11.4227 28.6504 11.2157 28.0634 9.83592C27.217 7.82146 25.3057 5.46205 23.3671 4.01329C21.7016 2.77149 20.0634 2.05401 17.5105 1.43312C16.8006 1.26754 14.275 1.12957 13.4695 1.22615ZM49.8791 6.20713C49.3467 6.28991 48.5003 7.17297 48.2818 7.86285C48.0498 8.62173 48.2818 9.43579 48.9371 10.0705C50.3842 11.4916 52.8962 10.1533 52.5822 8.11121C52.3911 6.81422 51.217 5.98636 49.8791 6.20713ZM34.9986 7.02119C34.8757 7.15917 34.8757 23.7992 35.0122 23.9924C35.0805 24.1028 35.6675 24.1442 36.8143 24.1304L38.5207 24.1166L38.589 21.3156C38.6436 19.039 38.6982 18.4871 38.862 18.3905C38.9713 18.3215 39.8996 18.2525 40.9235 18.2525C43.1624 18.2525 44.1044 18.087 45.1283 17.535C46.4661 16.8038 47.2443 15.7551 47.6675 14.0856C47.9269 13.037 47.9269 12.2781 47.6539 11.2019C47.4081 10.2361 47.2989 10.0015 46.7119 9.21503C45.9883 8.23539 45.2511 7.69728 44.0498 7.26955C43.3808 7.04879 42.8211 7.00739 39.2033 6.966C36.9508 6.9384 35.0532 6.966 34.9986 7.02119ZM42.4934 10.4568C43.4081 10.7466 43.8586 11.1605 44.0634 11.9056C44.3228 12.8852 44.1317 13.7959 43.5583 14.3478C42.9303 14.9411 42.3706 15.0791 40.5412 15.0791C39.3399 15.0791 38.9713 15.0377 38.8074 14.8583C38.63 14.6927 38.589 14.2926 38.589 12.7196C38.589 10.2361 38.5753 10.2499 40.473 10.2499C41.2921 10.2499 42.0839 10.3326 42.4934 10.4568ZM66.4389 9.64276C66.4389 10.5948 66.3706 11.4916 66.3024 11.6434C66.2068 11.8228 66.0157 11.9056 65.688 11.9056C65.4423 11.9056 65.2102 11.9608 65.1829 12.0436C65.1692 12.1125 65.1692 12.5955 65.2102 13.106C65.2785 14.0166 65.2921 14.0304 65.7017 14.127C65.9338 14.1684 66.1931 14.2512 66.275 14.3064C66.3979 14.3754 66.4389 15.4654 66.4389 18.2249C66.4389 21.9365 66.4525 22.0745 66.7529 22.6264C67.3808 23.7992 68.3638 24.2131 70.357 24.158L71.6949 24.1166L71.7358 22.7782L71.7768 21.426H71.4355C70.9167 21.426 70.1522 21.0121 70.0703 20.6809C70.0293 20.5154 69.9884 19.0528 69.9884 17.4109C69.9884 15.148 70.0293 14.3892 70.1658 14.2788C70.2614 14.196 70.6437 14.1132 71.0123 14.0856L71.6949 14.0442V11.9746L70.944 11.9332C70.5344 11.9056 70.1522 11.809 70.0976 11.7262C70.043 11.6296 69.9884 10.7328 69.9884 9.72554V7.90424H66.4389V9.64276ZM117.183 7.98703C117.128 8.04222 117.087 8.91148 117.087 9.91871C117.087 11.878 117.074 11.9056 116.323 11.9056C115.982 11.9056 115.982 11.9194 116.023 12.968C116.064 14.0166 116.077 14.0442 116.432 14.0856C116.623 14.1132 116.855 14.2098 116.924 14.2926C117.006 14.3892 117.087 16.0587 117.128 18.1835C117.169 20.2256 117.238 22.0883 117.292 22.3091C117.456 22.9162 118.302 23.6888 119.108 23.951C120.009 24.2545 122.302 24.2821 122.535 23.9924C122.644 23.8682 122.685 23.3715 122.657 22.654L122.616 21.495L122.139 21.4122C121.62 21.3294 121.033 21.0535 120.883 20.8189C120.828 20.7361 120.773 19.2322 120.773 17.4799C120.773 13.8787 120.692 14.1132 121.879 14.1132C122.657 14.1132 122.726 13.9752 122.657 12.7196L122.616 11.9746L121.729 11.9056L120.842 11.8366L120.773 9.90491L120.705 7.97323L118.985 7.93184C118.043 7.91804 117.238 7.94564 117.183 7.98703ZM59.6812 11.5744C59.0122 11.7538 58.2341 12.2091 57.7153 12.7472C57.0873 13.4095 56.9235 13.3681 56.8552 12.5265L56.8143 11.9746H53.4013V24.1166L55.1214 24.1442C56.8143 24.1855 56.8552 24.1718 56.9371 23.8682C56.9781 23.7026 57.0191 21.9503 57.0191 19.9634C57.0191 16.0311 57.0327 15.9207 57.8382 15.148C58.1931 14.8031 58.3843 14.7341 59.1488 14.6927L60.0361 14.6375L60.5686 15.2032C61.1965 15.8655 61.1283 15.2308 61.1829 20.9431C61.1965 22.4608 61.2102 23.7992 61.2238 23.9372C61.2512 24.1304 61.4696 24.158 62.9986 24.1304L64.7324 24.1166V14.4306L64.3365 13.6441C63.6539 12.2781 62.6027 11.6296 60.9918 11.5468C60.4184 11.533 59.8314 11.533 59.6812 11.5744ZM76.7461 11.5744C75.2717 11.9746 74.5618 12.3747 73.6471 13.2854C72.4184 14.5409 71.8587 16.0035 71.8587 17.9766C71.8723 21.4398 74.0157 24.0062 77.1829 24.3097C79.886 24.5719 81.9747 23.7716 83.3126 21.9641C83.5037 21.702 83.9133 20.8603 83.9133 20.7085C83.9133 20.6533 83.1215 20.5981 82.1659 20.5981H80.4184L80.0089 21.0259C79.531 21.5226 78.8621 21.8399 78.2478 21.8399C77.6334 21.8399 76.6915 21.3984 76.2546 20.9293C75.9269 20.5567 75.4491 19.4805 75.4491 19.108C75.4491 18.9838 76.4457 18.9424 79.6539 18.9424C81.9611 18.9424 83.9133 18.8872 84.0089 18.832C84.2137 18.6941 84.0225 16.5002 83.7222 15.7C83.1078 14.0304 81.9474 12.6231 80.7734 12.1263C80.4321 11.9884 80.0362 11.809 79.8996 11.74C79.613 11.5882 77.1829 11.4641 76.7461 11.5744ZM79.4082 14.5961C79.9406 14.9687 80.4048 15.8517 80.3365 16.3484C80.2955 16.6658 80.2683 16.6658 77.9611 16.7072C75.299 16.7486 75.2853 16.7348 75.7085 15.7413C76.0089 15.0515 76.6095 14.4306 77.1693 14.2512C77.8109 14.0442 78.8485 14.2098 79.4082 14.5961ZM96.9509 11.5744C95.3672 12.0022 94.2614 12.7058 93.4014 13.7959C93.0601 14.2374 92.787 14.6513 92.787 14.7341C92.787 14.8031 92.6915 15.0515 92.5686 15.286C92.4457 15.5068 92.2683 16.1967 92.1727 16.8176C91.6949 19.7703 93.0055 22.5298 95.4628 23.7716L96.4048 24.2545H98.3843C100.432 24.2545 100.61 24.2131 101.866 23.5371C102.78 23.0403 104.282 21.1087 104.05 20.7223C103.995 20.6533 103.217 20.5981 102.302 20.5981H100.623L100.282 20.9983C98.9167 22.5574 96.3638 21.7571 95.8178 19.5909C95.7358 19.3012 95.7358 19.0528 95.8041 18.9976C95.8724 18.9562 97.8246 18.9286 100.159 18.9424C103.49 18.9424 104.391 18.9148 104.405 18.7768C104.528 17.0521 103.709 14.4996 102.685 13.3957C102.111 12.7748 101.115 12.085 100.623 11.9608C100.405 11.9056 100.159 11.809 100.063 11.74C99.8724 11.5882 97.3741 11.4641 96.9509 11.5744ZM99.0806 14.265C99.6949 14.4858 100.405 15.2584 100.514 15.8517C100.678 16.7486 100.691 16.7486 98.1522 16.7072C95.8724 16.6658 95.8587 16.6658 95.8178 16.3484C95.7631 15.9621 96.241 15.0101 96.6505 14.6513C97.2376 14.1546 98.2614 13.989 99.0806 14.265ZM108.828 11.5744C106.029 12.2505 105.019 13.2578 105.005 15.355C105.005 17.6178 106.125 18.5699 109.442 19.1632C111.722 19.5633 112.378 19.9221 112.35 20.7913C112.337 21.4122 111.913 21.8123 111.067 21.9917C110.002 22.2263 109.169 21.9641 108.5 21.2052L107.968 20.5981H106.316C104.978 20.5981 104.664 20.6395 104.664 20.7913C104.664 21.1914 105.21 22.2401 105.661 22.7644C106.084 23.2197 106.412 23.4405 107.695 24.0614C107.818 24.1304 108.487 24.2407 109.156 24.3235C110.398 24.4753 112.555 24.3373 113.101 24.0614C113.224 24.0062 113.579 23.8268 113.879 23.6888C114.657 23.3163 115.395 22.4746 115.668 21.6744C115.968 20.7637 115.886 19.4943 115.463 18.6113C114.958 17.5764 113.62 16.8314 111.627 16.4726C109.06 16.0173 109.019 16.0035 108.61 15.6034C108.118 15.0929 108.118 14.9135 108.61 14.3616C109.005 13.92 109.033 13.9062 110.125 13.9062C111.217 13.9062 111.244 13.92 111.64 14.3616C111.859 14.6099 112.036 14.8997 112.036 15.0101C112.036 15.1756 112.323 15.217 113.743 15.217C115.627 15.217 115.572 15.2584 115.244 14.2788C114.644 12.5403 113.101 11.6572 110.535 11.5606C109.743 11.533 108.978 11.533 108.828 11.5744ZM90.671 11.8642C90.0703 12.0712 89.2375 12.761 88.9782 13.2578C88.7188 13.7545 88.4867 13.5475 88.4184 12.7196L88.3502 11.9746H84.9372L84.8962 17.7696C84.8826 20.9569 84.8962 23.7026 84.9372 23.882C85.0055 24.1855 85.0464 24.1855 86.6846 24.158C87.6266 24.1442 88.3911 24.0614 88.4457 23.9786C88.5003 23.9096 88.5549 22.447 88.5549 20.7361C88.5549 18.0318 88.5823 17.5488 88.8143 16.9417C89.2922 15.6862 90.316 14.9411 91.5993 14.9411C91.9543 14.9411 92.1044 14.8721 92.1454 14.6927C92.241 14.2926 92.2546 12.4299 92.1727 12.016C92.0908 11.6848 92.0225 11.6296 91.6539 11.6434C91.4082 11.6572 90.9713 11.7538 90.671 11.8642ZM48.6231 12.0712C48.5822 12.1677 48.5685 14.8859 48.5822 18.1146L48.6231 23.9786L50.2477 24.0476C51.2307 24.089 51.9406 24.0614 52.0498 23.9786C52.1999 23.8682 52.2409 22.6954 52.2409 18.0042C52.2546 14.8031 52.2136 12.1125 52.1726 12.0436C52.0361 11.8366 48.6914 11.8642 48.6231 12.0712Z" fill="#080808"/>
</svg>
