<svg width="98" height="32" viewBox="0 0 98 32" fill="none" xmlns="http://www.w3.org/2000/svg">
<path d="M12.7427 0H13.6039C16.5935 0.0656857 19.5343 1.28087 21.6465 3.43208C20.8666 4.23673 20.0705 5.00853 19.3068 5.81318C18.1208 4.72937 16.691 3.89188 15.1312 3.59629C12.824 3.10365 10.3381 3.54703 8.40459 4.87716C6.29238 6.27298 4.86257 8.63766 4.55387 11.1666C4.21266 13.6626 4.91132 16.29 6.51985 18.2278C8.06339 20.1162 10.4193 21.2986 12.8565 21.3807C15.1312 21.5121 17.5033 20.8059 19.1606 19.1966C20.4604 18.0636 21.0616 16.3393 21.2566 14.6643C18.5594 14.6643 15.8623 14.6807 13.1652 14.6643V11.2815H24.5224C25.1073 14.9106 24.2624 18.9996 21.5328 21.5942C19.713 23.4334 17.1946 24.5172 14.6275 24.7307C12.1416 24.977 9.57443 24.5008 7.36473 23.2856C4.71634 21.8569 2.60413 19.443 1.56428 16.6021C0.58941 13.991 0.573162 11.0352 1.48304 8.40776C2.31167 6.01024 3.90396 3.89188 5.95118 2.41395C7.91716 0.952442 10.3056 0.147793 12.7427 0Z" fill="#080808"/>
<path d="M77.8965 0.853996H81.3735V24.3037C80.2199 24.3037 79.0501 24.3202 77.8965 24.2873C77.9127 16.4872 77.8965 8.67058 77.8965 0.853996V0.853996Z" fill="#080808"/>
<path d="M32.2566 8.98264C34.4013 8.5721 36.7247 9.0319 38.4958 10.3292C40.1043 11.4787 41.2254 13.285 41.5666 15.2556C42.0053 17.5381 41.4529 20.0342 39.9906 21.8405C38.4145 23.8603 35.8311 24.9441 33.3127 24.7799C31.0055 24.6485 28.7633 23.4826 27.3985 21.5778C25.855 19.4758 25.4813 16.5857 26.3262 14.1225C27.171 11.4787 29.5595 9.45885 32.2566 8.98264V8.98264ZM32.744 12.1027C31.8667 12.3326 31.0543 12.8416 30.4693 13.5642C28.8933 15.469 28.9908 18.5727 30.7293 20.3462C31.7204 21.3643 33.2152 21.8405 34.5963 21.5613C35.8799 21.3314 37.001 20.4611 37.6184 19.3116C38.6907 17.3575 38.382 14.6644 36.741 13.1372C35.6849 12.1519 34.1413 11.7414 32.744 12.1027Z" fill="#080808"/>
<path d="M49.4781 8.98251C51.9315 8.50629 54.6124 9.19599 56.4484 10.9367C59.4379 13.6462 59.7629 18.7204 57.212 21.8405C55.6685 23.8111 53.1663 24.8949 50.6966 24.7799C48.3407 24.7143 46.0173 23.5319 44.62 21.5778C43.0439 19.4265 42.7027 16.4707 43.5964 13.9582C44.49 11.3965 46.8297 9.44231 49.4781 8.98251V8.98251ZM49.9655 12.1026C49.0881 12.3325 48.2757 12.8416 47.6908 13.5477C46.131 15.4197 46.196 18.4741 47.8695 20.264C48.8606 21.3314 50.4042 21.8569 51.834 21.5613C53.1013 21.315 54.2387 20.4611 54.8561 19.3116C55.9122 17.341 55.6035 14.6479 53.9462 13.1207C52.8901 12.1354 51.3466 11.7413 49.9655 12.1026Z" fill="#080808"/>
<path d="M64.0856 9.93502C65.9541 8.75268 68.44 8.42425 70.4548 9.44238C71.0884 9.72154 71.6084 10.1978 72.112 10.674C72.1283 10.2306 72.112 9.77081 72.1283 9.31101C73.2169 9.32743 74.3055 9.31101 75.4103 9.32743V23.8111C75.3941 25.9951 74.8417 28.3105 73.2819 29.9034C71.5759 31.6605 68.96 32.2024 66.604 31.8411C64.0856 31.4635 61.8922 29.6078 60.9173 27.2596C61.8922 26.7834 62.9158 26.4057 63.9232 25.9623C64.4918 27.3088 65.6454 28.4583 67.0915 28.7211C68.5375 28.9838 70.211 28.6226 71.1534 27.4074C72.1608 26.1593 72.1608 24.4515 72.112 22.9243C71.3646 23.6633 70.5035 24.3202 69.4637 24.5665C67.2052 25.2069 64.7193 24.4187 62.9808 22.8751C61.226 21.3315 60.1862 18.9504 60.2836 16.5857C60.3324 13.909 61.8272 11.3308 64.0856 9.93502V9.93502ZM67.4489 12.037C66.4578 12.2012 65.5317 12.7595 64.898 13.5313C63.3707 15.3705 63.3707 18.3099 64.9143 20.1163C65.7916 21.1837 67.2052 21.7748 68.57 21.627C69.8536 21.4957 71.0397 20.6746 71.6734 19.5415C72.7457 17.6202 72.567 15.0092 71.1209 13.3342C70.2273 12.2997 68.7975 11.7906 67.4489 12.037V12.037Z" fill="#080808"/>
<path d="M85.5475 10.7725C87.4972 8.93332 90.5031 8.30931 93.0052 9.27817C95.3774 10.1813 96.8884 12.4639 97.6521 14.8122C94.1263 16.2901 90.6168 17.7516 87.091 19.2295C87.5785 20.1656 88.3259 21.0195 89.3332 21.3643C90.7468 21.8734 92.4365 21.6927 93.6226 20.7403C94.0938 20.379 94.4675 19.9028 94.825 19.443C95.7186 20.0506 96.6122 20.6418 97.5058 21.2494C96.2385 23.1707 94.1101 24.5172 91.8191 24.7307C89.2845 25.0427 86.5873 24.0574 84.9463 22.054C82.2492 18.9011 82.5091 13.6134 85.5475 10.7725V10.7725ZM87.286 13.8105C86.7336 14.6151 86.5061 15.6004 86.5223 16.5693C88.8783 15.584 91.2342 14.5987 93.5901 13.597C93.2002 12.6774 92.2578 12.1191 91.2992 11.9713C89.7557 11.6921 88.1471 12.5296 87.286 13.8105V13.8105Z" fill="#080808"/>
</svg>
