<svg width="120" height="32" viewBox="0 0 120 32" fill="none" xmlns="http://www.w3.org/2000/svg">
<path d="M8.1593 27.2357H3.69295V15.9827H0.650391V12.3189H3.69283V9.7119C3.69283 6.62257 5.03851 4.40692 9.49277 4.40692C10.4348 4.40692 11.9139 4.59884 11.9139 4.59884V8.00084H10.3604C8.77755 8.00084 8.15954 8.48746 8.15954 9.83278V12.3189H11.8546L11.5256 15.9827H8.15942L8.1593 27.2357ZM18.4074 12.0261C18.3424 12.0261 18.2754 12.0285 18.2091 12.0302C14.0677 12.0302 12.1729 15.1787 12.1729 19.6481C12.1729 25.2784 14.6307 27.5317 18.2415 27.5317C20.3074 27.5317 21.6647 26.6529 22.4896 25.0129V27.2373H26.7378V12.3205H22.4896V14.6145C21.816 13.1386 20.4208 12.0436 18.4074 12.0261ZM19.4876 15.5509C21.2271 15.5509 22.2711 16.7772 22.2711 18.863L22.2751 20.9933C22.2751 22.3992 21.4128 24.0439 19.4876 24.0439C16.5279 24.0439 16.607 20.8139 16.607 19.7381C16.607 16.1194 18.1839 15.5509 19.4876 15.5509ZM28.4534 19.7797C28.4534 17.967 28.3676 12.0359 36.0133 12.0359C39.0824 12.0359 40.3639 13.0221 40.3639 13.0221L39.3339 16.251C39.3339 16.251 38.054 15.5387 36.3863 15.5387C34.2502 15.5387 32.8873 16.7902 32.8873 18.9922L32.8896 20.5712C32.8896 22.687 34.2047 24.0994 36.3907 24.0994C37.91 24.0994 39.3103 23.3804 39.3103 23.3804L40.3377 26.5419C40.3377 26.5419 39.1659 27.5344 36.0347 27.5344C28.7548 27.5344 28.4535 22.213 28.4535 19.7797H28.4534ZM65.2723 12.0302C69.4139 12.0302 71.3385 15.1787 71.3385 19.6481C71.3385 25.2784 68.8806 27.5317 65.2698 27.5317C63.2039 27.5317 61.6768 26.653 60.8518 25.0129V27.2373L56.6571 27.2356V4.86047L61.1108 4.4679V14.4124C61.7536 12.6726 63.866 12.0302 65.2724 12.0302H65.2723ZM64.0237 15.5509C62.2842 15.5509 61.1108 16.7772 61.1108 18.863L61.1066 20.9933C61.104 22.3992 61.9193 24.0439 64.0237 24.0439C66.9834 24.0439 66.9043 20.8139 66.9043 19.7381C66.9043 16.1194 65.3275 15.5509 64.0237 15.5509ZM48.0914 12.0426C43.394 12.0426 40.9141 14.631 40.9141 19.231V20.0856C40.9141 26.056 44.3967 27.5931 48.5486 27.5931C52.5842 27.5931 54.4109 26.4523 54.4109 26.4523L53.5775 23.4142C53.5775 23.4142 51.4287 24.3382 49.0826 24.3382C46.6503 24.3382 45.6043 23.7117 45.3362 21.3493H54.7669V18.912C54.7669 13.9222 51.9837 12.0424 48.0913 12.0424L48.0914 12.0426ZM48.2046 15.0847C49.8306 15.0847 50.8842 16.0924 50.8264 18.4296H45.3443C45.4394 15.9698 46.5756 15.0848 48.2046 15.0848V15.0847ZM80.219 12.0221C75.3951 12.0221 72.8556 14.7695 72.8556 19.6931C72.8556 26.4484 77.2332 27.5358 80.227 27.5358C84.6098 27.5358 87.5257 25.151 87.5257 19.7544C87.5257 14.1375 84.2471 12.0221 80.219 12.0221V12.0221ZM80.1583 15.5632C82.2794 15.5632 83.1199 17.1676 83.1199 18.9939V20.5641C83.1199 22.7765 81.9438 24.0562 80.1502 24.0562C78.4728 24.0562 77.2939 22.8592 77.2939 20.5641V18.9939C77.2939 16.5462 78.6967 15.5632 80.1583 15.5632V15.5632ZM96.3982 12.0221C91.5743 12.0221 89.0348 14.7695 89.0348 19.6931C89.0348 26.4484 93.4124 27.5358 96.4062 27.5358C100.789 27.5358 103.705 25.151 103.705 19.7544C103.705 14.1375 100.426 12.0221 96.3982 12.0221V12.0221ZM96.3375 15.5632C98.4586 15.5632 99.299 17.1676 99.299 18.9939V20.5641C99.299 22.7765 98.1229 24.0562 96.3294 24.0562C94.652 24.0562 93.4731 22.8592 93.4731 20.5641V18.9939C93.4731 16.5462 94.8759 15.5632 96.3375 15.5632V15.5632ZM105.388 27.2357V4.86047L109.854 4.4679V19.4652L114.286 12.3189H119.003L114.38 19.7204L119.181 27.2357H114.45L109.854 19.9384V27.2357H105.388Z" fill="#080808"/>
</svg>
