<svg width="110" height="32" viewBox="0 0 110 32" fill="none" xmlns="http://www.w3.org/2000/svg">
<g clip-path="url(#clip0)">
<path d="M17.8843 28.1548L10.7323 28.0225C8.41658 27.9765 6.09516 28.0685 3.82494 27.5912C0.371254 26.8782 0.126594 23.3818 -0.129446 20.4491C-0.482211 16.3259 -0.345657 12.1281 0.320046 8.03945C0.69557 5.74499 2.17491 4.37637 4.46219 4.22685C12.1832 3.68631 19.9554 3.74956 27.6594 4.00258C28.473 4.02559 29.2923 4.1521 30.0946 4.29586C34.0547 4.99742 34.1514 8.95953 34.4074 12.2948C34.6635 15.6646 34.5554 19.0517 34.066 22.3985C33.6734 25.1703 32.9224 27.4935 29.7532 27.7177C25.7817 28.011 21.9013 28.2468 17.9185 28.172C17.9185 28.1548 17.8957 28.1548 17.8843 28.1548V28.1548ZM13.6796 21.1391C16.6724 19.4025 19.6083 17.6946 22.5841 15.9694C19.5856 14.2328 16.6554 12.5249 13.6796 10.7997V21.1391Z" fill="#080808"/>
<path d="M91.7734 25.0036C91.6368 25.5671 91.5173 26.0099 91.3979 26.4815H88.5985V4.65803H91.8644V12.7088C92.0351 12.4903 92.1205 12.3983 92.1944 12.3005C92.752 11.5242 93.4746 11.0182 94.4077 10.8226C95.8928 10.5294 97.1616 11.1907 97.6111 12.6341C97.9013 13.5312 98.089 14.4915 98.1118 15.4289C98.1573 17.8384 98.1232 20.2421 98.0378 22.6516C98.0037 23.3877 97.7818 24.141 97.503 24.8311C96.5869 27.1083 93.5941 27.4533 92.1091 25.4809C92.018 25.3601 91.9327 25.2278 91.7734 25.0036V25.0036ZM91.9327 19V22.9909C91.9327 23.6407 92.2741 24.0375 92.917 24.187C93.5486 24.3365 94.0607 24.0892 94.3167 23.4969C94.4248 23.2496 94.5329 22.9909 94.5386 22.7321C94.6012 20.2938 94.6581 17.8556 94.6752 15.4116C94.6752 14.9573 94.5671 14.4858 94.4305 14.043C94.1745 13.2436 93.4689 13.0079 92.7748 13.4737C92.2513 13.8302 91.9327 14.3363 91.9327 15.0091V19ZM83.0567 11.1332H86.4762V26.493H83.8077C83.711 25.9122 83.6143 25.3141 83.5005 24.6125C83.3184 24.8828 83.2103 25.0553 83.0965 25.2278C82.2089 26.5217 80.9515 26.9645 79.4664 26.7287C78.1976 26.5217 77.4352 25.5326 77.2645 23.911C77.2133 23.4279 77.1905 22.9391 77.1905 22.4561C77.1792 18.862 77.1905 15.2563 77.1905 11.6622V11.1217H80.6499V11.7485C80.6499 15.2218 80.6385 18.6894 80.6613 22.1628C80.6613 22.6573 80.7125 23.1691 80.7978 23.6637C80.8946 24.1697 81.2587 24.3538 81.748 24.3193C82.5389 24.256 83.0851 23.6637 83.0851 22.8701V11.8117C83.0567 11.5875 83.0567 11.3805 83.0567 11.1332V11.1332ZM59.5125 11.1217H62.9491V11.7715C62.9491 15.2276 62.9377 18.6779 62.9605 22.1225C62.9605 22.6171 63.006 23.1289 63.1084 23.6119C63.2393 24.1812 63.5693 24.3653 64.1325 24.2905C64.912 24.1812 65.3843 23.6349 65.39 22.8356V11.8347V11.1447H68.8095V26.493H66.1524C66.0557 25.9237 65.959 25.3371 65.8338 24.5953C65.6631 24.8541 65.5664 25.0036 65.4696 25.1588C64.582 26.4757 63.336 26.9588 61.8168 26.723C60.5992 26.539 59.8539 25.6304 59.6263 24.141C59.5637 23.6752 59.5182 23.2151 59.5182 22.7493C59.5068 19.0172 59.5068 15.2678 59.5068 11.5357L59.5125 11.1217ZM57.7486 19.322C57.7373 19.8396 57.7031 20.3571 57.6747 20.8747C57.5438 22.4273 57.4812 24.6298 56.2409 25.7626C55.45 26.4757 54.4486 26.7345 53.413 26.769C52.9522 26.7805 52.4856 26.7805 52.0247 26.7172C49.8456 26.3837 48.8328 25.4119 48.4687 22.9909C48.0533 20.1961 48.0192 17.3553 48.5142 14.5605C49.0262 11.668 50.7901 10.6444 53.5325 10.8341C56.0929 11.0182 57.2366 12.7146 57.5381 15.1298C57.7031 16.5157 57.7828 17.9189 57.7486 19.322V19.322ZM54.2665 18.7929C54.2665 17.8096 54.2893 16.8205 54.2551 15.8372C54.2324 15.2678 54.1584 14.6928 54.0389 14.1292C53.9024 13.4794 53.4927 13.1689 52.9806 13.1804C52.4799 13.1919 52.1272 13.5024 51.9451 14.1062C51.8825 14.3305 51.8142 14.5605 51.8142 14.7848C51.8142 16.326 51.8028 17.8729 51.7915 19.414C51.7801 20.8517 51.598 22.3583 52.0475 23.7327C52.1841 24.1525 52.5368 24.3825 52.9977 24.3825C53.4472 24.3825 53.7431 24.1582 53.9081 23.7557C54.0389 23.4452 54.1527 23.1059 54.1527 22.7723C54.1925 21.4497 54.2665 20.1213 54.2665 18.7929ZM43.4503 15.9004C43.7518 14.411 44.0363 12.9561 44.3493 11.4955C44.7419 9.63803 45.18 7.78059 45.5669 5.9174C45.6636 5.46311 45.8457 5.35385 46.2724 5.36535C47.1885 5.39985 48.1216 5.37685 49.1002 5.37685C48.7816 6.56147 48.4686 7.68858 48.1614 8.79844C47.1885 12.2833 46.2155 15.7796 45.2539 19.276C45.18 19.5463 45.1458 19.8396 45.1458 20.1271C45.1345 22.0363 45.1458 23.9397 45.1458 25.8489V26.47H41.8059C41.7946 26.2975 41.7718 26.1249 41.7718 25.9524C41.7718 24.8713 41.6865 23.7845 41.7832 22.7148C42.0278 20.1443 41.2199 17.7808 40.5656 15.3886C39.7007 12.2258 38.8245 9.05147 37.9597 5.88865C37.9142 5.73914 37.8971 5.57812 37.8516 5.3941H41.2597C41.9766 8.8847 42.6992 12.3753 43.4503 15.9004ZM108.797 19.9086H103.039C103.102 21.0759 103.124 22.1858 103.244 23.2842C103.329 24.049 103.745 24.3768 104.399 24.3825C105.082 24.394 105.48 24.049 105.639 23.2899C105.691 23.0426 105.725 22.7954 105.747 22.5423C105.77 22.3181 105.782 22.0765 105.799 21.7545C106.772 21.8063 107.722 21.8638 108.661 21.904C109.207 23.5429 108.222 25.6476 106.567 26.2975C105.264 26.815 103.927 26.815 102.595 26.4182C101.611 26.1249 100.877 25.4924 100.547 24.5205C100.24 23.6119 99.9496 22.6631 99.887 21.7142C99.7163 19.3738 99.6537 17.0103 100.006 14.664C100.069 14.273 100.177 13.8992 100.297 13.5197C100.775 11.9555 101.816 10.9952 103.426 10.8341C104.302 10.7479 105.207 10.7824 106.072 10.9319C107.471 11.1792 108.217 12.197 108.541 13.5312C108.689 14.158 108.797 14.802 108.82 15.4404C108.826 16.9068 108.797 18.3617 108.797 19.9086ZM105.526 17.8901C105.526 16.7342 105.537 15.6474 105.514 14.5548C105.514 14.296 105.417 14.0257 105.321 13.7784C105.127 13.2954 104.723 13.1631 104.24 13.1631C103.756 13.1631 103.449 13.4104 103.329 13.8532C102.965 15.1816 103.085 16.5387 103.096 17.9016C103.967 17.8901 104.757 17.8901 105.526 17.8901V17.8901Z" fill="#080808"/>
<path d="M71.4498 8.19485H68.0645V5.42307H78.1694V8.1776H74.8068V26.4702H71.4555L71.4498 8.19485Z" fill="#080808"/>
</g>
<defs>
<clipPath id="clip0">
<rect width="110" height="32" fill="white"/>
</clipPath>
</defs>
</svg>
