<svg width="118" height="32" viewBox="0 0 118 32" fill="none" xmlns="http://www.w3.org/2000/svg">
<path d="M38.3776 12.7961C38.3776 10.6987 36.3381 8.47118 32.8087 8.47118C28.8454 8.47118 24.4916 11.3786 23.8262 17.1789C23.1464 23.037 26.7914 25.6406 30.4654 25.6406C34.1394 25.6406 36.0632 24.2086 38.0304 22.2993C36.3381 20.173 34.1539 21.1566 33.7344 21.3736C33.2716 21.605 32.6785 21.9232 31.4635 21.9232C30.046 21.9232 28.5995 21.2868 28.5995 18.6398C37.6833 17.743 38.3776 14.8935 38.3776 12.7961ZM33.8791 13.1432C33.8212 13.7942 33.5609 14.9079 28.9611 15.5299C29.9302 12.0873 31.7817 11.827 32.6351 11.827C33.4307 11.827 33.9369 12.4489 33.8791 13.1432ZM18.4888 13.7074C18.4888 13.7074 16.536 19.8403 16.3769 20.3466C16.3191 19.8259 14.8871 8.81834 14.8871 8.81834C11.5602 8.81834 9.78108 11.1905 8.84088 13.6929C8.84088 13.6929 6.46869 19.8403 6.26619 20.3611C6.25172 19.8837 5.90457 13.7652 5.90457 13.7652C5.70207 10.6987 2.89594 8.8328 0.625 8.8328L3.37327 25.5105C6.85924 25.496 8.73963 23.1383 9.72322 20.6359C9.72322 20.6359 11.8206 15.2117 11.9074 14.9658C11.9218 15.1972 13.4117 25.5105 13.4117 25.5105C16.9121 25.5105 18.7925 23.2974 19.805 20.8818L24.7085 8.8328C21.2515 8.8328 19.429 11.1905 18.4888 13.7074ZM51.2221 8.44226C49.0669 8.44226 47.4179 9.61389 46.0293 11.3352V11.3207L47.2733 1.29675C44.4093 1.29675 42.0805 3.78466 41.6321 7.48759L39.4624 25.3803C41.1114 25.3803 42.8616 24.9029 43.8018 23.6879C44.6407 24.7728 45.8991 25.6406 47.7651 25.6406C52.5962 25.6406 55.9086 20.0284 55.9086 14.7633C55.8797 9.96104 53.5509 8.44226 51.2221 8.44226ZM50.7737 17.0487C50.2674 19.985 48.6329 21.9811 47.0563 21.9811C45.4652 21.9811 44.7854 21.2723 44.7854 21.2723C45.0891 18.6976 45.2772 17.121 45.8558 15.7613C46.4343 14.4017 47.8085 12.232 49.2405 12.232C50.6435 12.232 51.28 14.0979 50.7737 17.0487ZM67.9721 8.8328H64.6018L64.6163 8.65922C64.8477 6.46061 65.3685 5.30344 67.0898 5.1154C68.2614 4.99969 68.7821 4.39217 68.9123 3.7268C69.0135 3.20608 69.3318 1.398 69.3318 1.398C62.5623 1.35461 60.4361 4.27646 59.8864 8.73155L59.8719 8.8328H59.7996C58.7003 8.8328 57.4853 10.0768 57.2828 11.6534L57.2104 12.232H59.4669L57.5721 27.8827L56.9935 30.6888C57.0658 30.6888 57.1526 30.7032 57.2249 30.7032C60.3927 30.5875 62.4177 28.0852 62.8661 24.4545L64.3415 12.232H65.3974C66.4388 12.232 67.6539 11.1905 67.8708 9.45478L67.9721 8.8328ZM85.5032 8.54351C81.6122 8.54351 77.9382 11.4075 76.81 15.906C75.6817 20.4045 77.3885 25.7274 83.1165 25.7274C88.83 25.7274 92.1279 20.1875 92.1279 15.5733C92.1279 10.988 89.0181 8.54351 85.5032 8.54351ZM87.0798 16.904C86.8773 18.9435 85.9805 22.039 83.5215 22.039C81.0481 22.039 81.3952 18.4228 81.6411 16.7015C81.9015 14.8645 82.9285 12.2464 85.1416 12.2464C87.1232 12.2464 87.3112 14.6042 87.0798 16.904ZM111.351 13.7074C111.351 13.7074 109.399 19.8403 109.24 20.3466C109.182 19.8259 107.75 8.81834 107.75 8.81834C104.423 8.81834 102.644 11.1905 101.704 13.6929C101.704 13.6929 99.3313 19.8403 99.1288 20.3611C99.1143 19.8837 98.7672 13.7652 98.7672 13.7652C98.5647 10.6987 95.7586 8.8328 93.4876 8.8328L96.2214 25.5105C99.7074 25.496 101.588 23.1383 102.571 20.6359C102.571 20.6359 104.669 15.2117 104.741 14.9658C104.77 15.1972 106.245 25.5105 106.245 25.5105C109.746 25.5105 111.626 23.2974 112.639 20.8818L117.542 8.8328C114.1 8.8328 112.277 11.1905 111.351 13.7074ZM71.1543 1.398L68.3192 24.2665L67.7407 27.0871C67.813 27.0871 67.8998 27.1016 67.9721 27.1016C71.0241 27.0582 73.1938 24.3822 73.5988 21.012L75.2333 7.8926C75.7251 3.88591 73.3385 1.398 71.1543 1.398Z" fill="#080808"/>
</svg>
