<svg width="162" height="38" viewBox="0 0 162 38" fill="none" xmlns="http://www.w3.org/2000/svg">
<path d="M0 18.5737L12.8002 31.3738H0V18.5737ZM12.1711 6.40262L24.9712 19.2028V6.40262H12.1711ZM0 12.8002L24.9763 37.7765V24.9763L0 0V12.8002Z" fill="#0B6DFF"/>
<path d="M51.0338 20.449V18.4846H42.1488V10.3854H52.7262V8.33034H39.9729V29.9687H42.1488V20.449H51.0338ZM56.9548 11.1711C57.7708 11.1711 58.4054 10.5667 58.4054 9.72051C58.4054 8.87432 57.7708 8.23967 56.9548 8.23967C56.1086 8.23967 55.5042 8.87432 55.5042 9.72051C55.5042 10.5667 56.1086 11.1711 56.9548 11.1711ZM55.9273 29.9687H58.0126V15.3416H55.9273V29.9687ZM64.568 29.9385V22.3227C64.568 18.8171 66.4719 16.8527 69.2522 16.8527C71.4886 16.8527 73.2112 17.85 73.2112 21.4765V29.9687H75.2965V21.0232C75.2965 17.3967 73.6645 14.9488 69.6149 14.9488C67.4994 14.9488 65.5653 16.0065 64.5982 17.8802L64.296 15.3416H62.4827V29.9385H64.568ZM82.6855 29.9687V17.0643H85.5868V15.3416H82.6855V10.7178H80.6305V15.3416H77.699V17.0643H80.6305V29.9687H82.6855ZM87.0105 22.6552C87.0105 27.3394 89.7304 30.3313 93.8405 30.3313C97.1346 30.3313 99.7638 28.4879 100.519 25.5866H98.4945C98.011 27.3092 96.1675 28.5181 93.8707 28.5181C91.2112 28.5181 89.2771 26.8861 89.0655 23.592H100.489V22.6249C100.489 17.9104 97.8901 14.9488 93.8405 14.9488C89.821 14.9488 87.0105 17.9407 87.0105 22.6552ZM89.0957 22.081C89.1864 18.5451 91.1508 16.762 93.8102 16.762C96.3488 16.762 98.3434 18.3638 98.4038 22.081H89.0957ZM102.829 22.6854C102.829 27.279 105.579 30.3313 109.628 30.3313C112.953 30.3313 115.582 28.367 116.277 25.3751H114.222C113.618 27.279 111.865 28.4576 109.749 28.4576C106.788 28.4576 104.884 26.1608 104.884 22.6552C104.884 19.0588 106.939 16.7923 109.9 16.7923C111.865 16.7923 113.618 17.9104 114.192 19.9353H116.217C115.642 16.9434 113.195 14.9488 109.9 14.9488C105.669 14.9488 102.829 18.0616 102.829 22.6854ZM121.557 29.9385V21.8694C121.557 18.8473 123.461 16.8527 126.362 16.8527C128.478 16.8527 130.201 17.85 130.201 21.4765V29.9687H132.286V21.0232C132.286 17.3967 130.684 14.9488 126.816 14.9488C124.368 14.9488 122.494 16.067 121.557 17.8198V7.93746H119.472V29.9385H121.557ZM150.771 19.1797L143.186 29.9687H145.785L152.071 20.8721C152.434 21.4765 153.31 22.8063 154.247 24.1662L158.327 29.9687H161.047L153.401 19.1193L160.926 8.33034H158.357L152.101 17.6082C151.769 17.0643 150.741 15.4625 149.744 14.0119L145.755 8.33034H143.095L150.771 19.1797Z" fill="white"/>
</svg>
